<svg id="Layer_1" enable-background="new 0 0 512.063 512.063" height="512" viewBox="0 0 512.063 512.063" width="512" xmlns="http://www.w3.org/2000/svg"><g><path d="m147.554 297.234c52.178 39.177 103.532 59.354 105.692 60.193 1.811.679 3.622.679 5.434 0 98.451-38.791 211.592-124.039 212.596-238.288-.709-117.444-150.832-163.61-215.313-65.649-28.162-44.747-86.733-65.033-136.554-46.841-8.849 3.127-4.254 17.409 4.999 14.142 47.501-17.273 102.59 5.249 124.852 51.127 2.716 5.414 10.691 5.416 13.407 0 49.845-97.003 192.504-61.522 193.608 47.222-1.317 107.685-108.924 184.94-200.311 223.197-42.312-16.213-133.478-70.727-169.232-127.91-37.573-54.33-47.006-130.601 5.841-175.327 7.163-6.064-2.202-17.788-9.691-11.448-58.845 49.523-50.585 134.899-8.467 195.34 17.702 26.116 42.31 51.094 73.139 74.242z"/><path d="m330.263 468.397-41.948 20.444c-.043.021-.087.043-.13.065-19.55 10.003-42.366 10.841-62.601 2.297-.076-.032-.152-.062-.229-.092l-108.58-41.691c-.858-.33-1.77-.499-2.688-.499h-65.935c-9.385 0-9.813 15 0 15h64.544l107.17 41.151c11.102 4.669 22.846 6.991 34.569 6.991 13.909 0 27.788-3.27 40.514-9.768l41.886-20.414c8.437-4.112 2.247-17.787-6.572-13.484z"/><path d="m410.389 381.651-93.082 24.913c-.713-14.879-13.052-26.765-28.119-26.765h-241.036c-9.385 0-9.813 15 0 15h241.036c7.253 0 13.153 5.888 13.153 13.125s-5.9 13.125-13.153 13.125h-81.546c-9.385 0-9.813 15 0 15h81.546c9.839 0 18.51-5.073 23.546-12.734l101.502-27.167c19.711-5.181 26.357 18.459 8.928 26.971l-57.415 27.982c-8.464 4.125-2.183 17.752 6.572 13.483l57.295-27.924c34.164-15.24 17.393-64.634-19.227-55.009z"/><path d="m92.208 78.852c-15.351 23.605-15.935 68.812-1.597 93.451 4.553 8.231 17.871 1.317 13.126-7.261-11.661-20.014-11.328-59.168 1.199-78.255 2.191-3.515 1.119-8.141-2.396-10.332-3.515-2.192-8.142-1.117-10.332 2.397z"/></g></svg>